<svg width="17px" height="17px" id="Layer_1" data-name="Layer 1" xmlns="http://www.w3.org/2000/svg" viewBox="0 0 512 512"><title>zoom-in-glyph</title><path d="M505.75,475.58,378.42,348.25a212.3,212.3,0,0,0,48.25-134.92C426.67,95.7,331,0,213.33,0S0,95.7,0,213.33,95.7,426.67,213.33,426.67a212.3,212.3,0,0,0,134.92-48.25L475.58,505.75a21.33,21.33,0,1,0,30.17-30.17ZM277.33,234.67H234.67v42.67a21.33,21.33,0,1,1-42.67,0V234.67H149.33a21.33,21.33,0,0,1,0-42.67H192V149.33a21.33,21.33,0,0,1,42.67,0V192h42.67a21.33,21.33,0,1,1,0,42.67Z"/></svg>