<svg xmlns="http://www.w3.org/2000/svg" fill-rule="evenodd" stroke-linejoin="round" stroke-miterlimit="2" clip-rule="evenodd" viewBox="0 0 64 64" id="return"><g transform="translate(-320 -192)"><path d="M337,207.062L356,207.062C366.486,207.062 375,215.576 375,226.062C375,236.548 366.486,245.062 356,245.062C345.514,245.062 337,236.548 337,226.062C337,224.406 335.656,223.062 334,223.062C332.344,223.062 331,224.406 331,226.062C331,239.86 342.202,251.062 356,251.062C369.798,251.062 381,239.86 381,226.062C381,212.264 369.798,201.062 356,201.062C356,201.062 337,201.062 337,201.062C337,201.062 337,200.062 337,200.062C337,199.022 336.462,198.057 335.577,197.51C334.693,196.963 333.588,196.914 332.658,197.379C332.658,197.379 324.658,201.379 324.658,201.379C323.642,201.887 323,202.926 323,204.062C323,205.198 323.642,206.237 324.658,206.745C324.658,206.745 332.658,210.745 332.658,210.745C333.588,211.21 334.693,211.161 335.577,210.614C336.462,210.067 337,209.102 337,208.062L337,207.062Z"></path><path d="M224,207.062C214.617,207.062 207,214.679 207,224.062C207,233.445 214.617,241.062 224,241.062C233.383,241.062 241,233.445 241,224.062C241,214.679 233.383,207.062 224,207.062ZM224,211C216.825,211 211,216.825 211,224C211,231.175 216.825,237 224,237C231.175,237 237,231.175 237,224C237,216.825 231.175,211 224,211ZM224,213C230.071,213 235,217.929 235,224C235,230.071 230.071,235 224,235C217.929,235 213,230.071 213,224C213,217.929 217.929,213 224,213ZM223,217.062C220.791,217.062 219,218.853 219,221.062C219,221.062 219,221.062 219,221.062C219,223.271 220.791,225.062 223,225.062L223,229.062C221.895,229.062 221,228.167 221,227.062C221,226.51 220.552,226.062 220,226.062C219.448,226.062 219,226.51 219,227.062C219,229.271 220.791,231.062 223,231.062L223,232.062C223,232.614 223.448,233.062 224,233.062C224.552,233.062 225,232.614 225,232.062L225,231.062C227.209,231.062 229,229.271 229,227.062L229,227.062C229,224.853 227.209,223.062 225,223.062L225,219.062C226.105,219.062 227,219.958 227,221.062C227,221.614 227.448,222.062 228,222.062C228.552,222.062 229,221.614 229,221.062C229,218.853 227.209,217.062 225,217.062L225,216.062C225,215.51 224.552,215.062 224,215.062C223.448,215.062 223,215.51 223,216.062L223,217.062ZM225,225.062L225,229.062C226.105,229.062 227,228.167 227,227.062C227,227.062 227,227.062 227,227.062C227,225.958 226.105,225.062 225,225.062ZM223,219.062L223,219.062C221.895,219.062 221,219.958 221,221.062C221,222.167 221.895,223.062 223,223.062L223,219.062Z" transform="translate(132 2)"></path></g></svg>